<svg xmlns="http://www.w3.org/2000/svg" xmlns:xlink="http://www.w3.org/1999/xlink" version="1.1" class="marks" width="1107.3350830078125" height="350" viewBox="0 0 1107.3350830078125 350"><rect width="1107.3350830078125" height="350" fill="#ffffff"/><g fill="none" stroke-miterlimit="10" transform="translate(79,2)"><g class="mark-group role-frame root" role="graphics-object" aria-roledescription="group mark container"><g transform="translate(0,0)"><path class="background" aria-hidden="true" d="M0,0h817.3350830078125v271h-817.3350830078125Z" stroke-width="0"/><g><g class="mark-group role-axis" aria-hidden="true"><g transform="translate(0.5,0.5)"><path class="background" aria-hidden="true" d="M0,0h0v0h0Z" pointer-events="none"/><g><g class="mark-rule role-axis-grid" pointer-events="none"><line transform="translate(0,271)" x2="817.3350830078125" y2="0" stroke="#e6eaf1" stroke-width="1" opacity="1"/><line transform="translate(0,226)" x2="817.3350830078125" y2="0" stroke="#e6eaf1" stroke-width="1" opacity="1"/><line transform="translate(0,181)" x2="817.3350830078125" y2="0" stroke="#e6eaf1" stroke-width="1" opacity="1"/><line transform="translate(0,136)" x2="817.3350830078125" y2="0" stroke="#e6eaf1" stroke-width="1" opacity="1"/><line transform="translate(0,90)" x2="817.3350830078125" y2="0" stroke="#e6eaf1" stroke-width="1" opacity="1"/><line transform="translate(0,45)" x2="817.3350830078125" y2="0" stroke="#e6eaf1" stroke-width="1" opacity="1"/><line transform="translate(0,0)" x2="817.3350830078125" y2="0" stroke="#e6eaf1" stroke-width="1" opacity="1"/></g></g><path class="foreground" aria-hidden="true" d="" pointer-events="none" display="none"/></g></g><g class="mark-group role-axis" role="graphics-symbol" aria-roledescription="axis" aria-label="X-axis titled 'date' for a time scale with values from Monday, 06 July 2020, 12:00:00 AM to Monday, 01 April 2024, 12:00:00 AM"><g transform="translate(0.5,271.5)"><path class="background" aria-hidden="true" d="M0,0h0v0h0Z" pointer-events="none"/><g><g class="mark-text role-axis-label" pointer-events="none"><text text-anchor="middle" transform="translate(52.09388441148695,25)" font-family="&quot;Source Sans Pro&quot;, sans-serif" font-size="12px" font-style="normal" font-weight="400" fill="#808495" opacity="1">October</text><text text-anchor="middle" transform="translate(107.20661940429092,25)" font-family="&quot;Source Sans Pro&quot;, sans-serif" font-size="12px" font-style="normal" font-weight="400" fill="#808495" opacity="1">2021</text><text text-anchor="middle" transform="translate(161.0718954791953,25)" font-family="&quot;Source Sans Pro&quot;, sans-serif" font-size="12px" font-style="normal" font-weight="400" fill="#808495" opacity="1">April</text><text text-anchor="middle" transform="translate(215.56090101304946,25)" font-family="&quot;Source Sans Pro&quot;, sans-serif" font-size="12px" font-style="normal" font-weight="400" fill="#808495" opacity="1">July</text><text text-anchor="middle" transform="translate(270.6486868274954,25)" font-family="&quot;Source Sans Pro&quot;, sans-serif" font-size="12px" font-style="normal" font-weight="400" fill="#808495" opacity="1">October</text><text text-anchor="middle" transform="translate(325.7614218202994,25)" font-family="&quot;Source Sans Pro&quot;, sans-serif" font-size="12px" font-style="normal" font-weight="400" fill="#808495" opacity="1">2022</text><text text-anchor="middle" transform="translate(379.6266978952038,25)" font-family="&quot;Source Sans Pro&quot;, sans-serif" font-size="12px" font-style="normal" font-weight="400" fill="#808495" opacity="1">April</text><text text-anchor="middle" transform="translate(434.11570342905793,25)" font-family="&quot;Source Sans Pro&quot;, sans-serif" font-size="12px" font-style="normal" font-weight="400" fill="#808495" opacity="1">July</text><text text-anchor="middle" transform="translate(489.2034892435039,25)" font-family="&quot;Source Sans Pro&quot;, sans-serif" font-size="12px" font-style="normal" font-weight="400" fill="#808495" opacity="1">October</text><text text-anchor="middle" transform="translate(544.3162242363078,25)" font-family="&quot;Source Sans Pro&quot;, sans-serif" font-size="12px" font-style="normal" font-weight="400" fill="#808495" opacity="1">2023</text><text text-anchor="middle" transform="translate(598.1815003112122,25)" font-family="&quot;Source Sans Pro&quot;, sans-serif" font-size="12px" font-style="normal" font-weight="400" fill="#808495" opacity="1">April</text><text text-anchor="middle" transform="translate(652.6705058450665,25)" font-family="&quot;Source Sans Pro&quot;, sans-serif" font-size="12px" font-style="normal" font-weight="400" fill="#808495" opacity="1">July</text><text text-anchor="middle" transform="translate(707.7582916595123,25)" font-family="&quot;Source Sans Pro&quot;, sans-serif" font-size="12px" font-style="normal" font-weight="400" fill="#808495" opacity="1">October</text><text text-anchor="middle" transform="translate(762.8710266523163,25)" font-family="&quot;Source Sans Pro&quot;, sans-serif" font-size="12px" font-style="normal" font-weight="400" fill="#808495" opacity="1">2024</text><text text-anchor="end" transform="translate(818.3350830078125,25)" font-family="&quot;Source Sans Pro&quot;, sans-serif" font-size="12px" font-style="normal" font-weight="400" fill="#808495" opacity="1">April</text></g><g class="mark-text role-axis-title" pointer-events="none"><text text-anchor="middle" transform="translate(408.66754150390625,54)" font-family="&quot;Source Sans Pro&quot;, sans-serif" font-size="14px" font-style="normal" font-weight="400" fill="#808495" opacity="1">date</text></g></g><path class="foreground" aria-hidden="true" d="" pointer-events="none" display="none"/></g></g><g class="mark-group role-axis" role="graphics-symbol" aria-roledescription="axis" aria-label="Y-axis titled 'sales, prediction' for a linear scale with values from 0 to 12,000"><g transform="translate(0.5,0.5)"><path class="background" aria-hidden="true" d="M0,0h0v0h0Z" pointer-events="none"/><g><g class="mark-text role-axis-label" pointer-events="none"><text text-anchor="end" transform="translate(-16,269)" font-family="&quot;Source Sans Pro&quot;, sans-serif" font-size="12px" font-style="normal" font-weight="400" fill="#808495" opacity="1">0</text><text text-anchor="end" transform="translate(-16,229.83333333333334)" font-family="&quot;Source Sans Pro&quot;, sans-serif" font-size="12px" font-style="normal" font-weight="400" fill="#808495" opacity="1">2,000</text><text text-anchor="end" transform="translate(-16,184.66666666666669)" font-family="&quot;Source Sans Pro&quot;, sans-serif" font-size="12px" font-style="normal" font-weight="400" fill="#808495" opacity="1">4,000</text><text text-anchor="end" transform="translate(-16,139.5)" font-family="&quot;Source Sans Pro&quot;, sans-serif" font-size="12px" font-style="normal" font-weight="400" fill="#808495" opacity="1">6,000</text><text text-anchor="end" transform="translate(-16,94.33333333333334)" font-family="&quot;Source Sans Pro&quot;, sans-serif" font-size="12px" font-style="normal" font-weight="400" fill="#808495" opacity="1">8,000</text><text text-anchor="end" transform="translate(-16,49.16666666666666)" font-family="&quot;Source Sans Pro&quot;, sans-serif" font-size="12px" font-style="normal" font-weight="400" fill="#808495" opacity="1">10,000</text><text text-anchor="end" transform="translate(-16,8)" font-family="&quot;Source Sans Pro&quot;, sans-serif" font-size="12px" font-style="normal" font-weight="400" fill="#808495" opacity="1">12,000</text></g><g class="mark-text role-axis-title" pointer-events="none"><text text-anchor="middle" transform="translate(-64.80793762207031,135.5) rotate(-90) translate(0,-3)" font-family="&quot;Source Sans Pro&quot;, sans-serif" font-size="14px" font-style="normal" font-weight="400" fill="#808495" opacity="1">sales, prediction</text></g></g><path class="foreground" aria-hidden="true" d="" pointer-events="none" display="none"/></g></g><g class="mark-line role-mark layer_0_marks" role="graphics-object" aria-roledescription="line mark container"><path aria-label="date: Jul 06, 2020; sales: 2626" role="graphics-symbol" aria-roledescription="line mark" d="M0,211.696L4.191,131.774L8.383,151.173L12.574,229.085L16.766,190.378L20.957,125.338L25.149,142.614L29.34,136.019L33.532,122.695L37.723,182.406L41.915,158.625L46.106,120.121L50.298,138.571L54.489,156.367L58.68,130.306L62.872,198.53L67.088,153.002L71.28,207.202L75.471,192.907L79.663,159.506L83.854,24.571L88.046,39.318L92.237,44.896L96.429,42.366L100.62,127.935L104.811,91.824L109.003,156.661L113.194,161.245L117.386,165.716L121.577,190.242L125.769,155.509L129.96,166.688L134.152,182.36L138.343,197.898L142.535,184.393L146.726,150.653L150.918,180.599L155.109,198.169L159.276,138.323L163.467,179.018L167.658,134.371L171.85,184.348L176.041,181.412L180.233,190.061L184.424,186.38L188.616,167.026L192.807,199.23L196.999,193.065L201.19,178.996L205.382,193.291L209.573,133.806L213.765,152.302L217.956,168.856L222.147,180.215L226.339,176.511L230.53,191.032L234.722,161.177L238.913,182.835L243.105,203.318L247.296,181.096L251.488,203.115L255.679,173.621L259.871,193.404L264.062,200.992L268.254,173.734L272.445,187.893L276.636,172.695L280.828,179.56L285.019,180.012L289.236,170.12L293.427,169.556L297.619,151.85L301.81,62.398L306.002,13.053L310.193,67.163L314.385,35.546L318.576,111.697L322.768,120.369L326.959,165.129L331.15,185.07L335.342,179.108L339.533,180.96L343.725,184.506L347.916,187.238L352.108,186.877L356.299,163.616L360.491,191.213L364.682,186.493L368.874,195.03L373.065,171.882L377.232,191.8L381.423,184.89L385.615,187.758L389.806,166.326L393.997,192.049L398.189,189.497L402.38,190.355L406.572,177.121L410.763,194.239L414.955,192.658L419.146,190.355L423.338,156.728L427.529,175.337L431.721,187.984L435.912,182.022L440.104,93.518L444.295,144.285L448.486,182.112L452.678,187.984L456.869,181.841L461.061,149.208L465.252,175.947L469.444,183.603L473.635,154.967L477.827,111.72L482.018,161.99L486.21,177.324L490.401,173.101L494.593,57.859L498.784,181.593L502.975,156.141L507.192,184.461L511.383,177.347L515.575,179.312L519.766,116.372L523.958,71.25L528.149,76.783L532.341,52.71L536.532,120.347L540.724,34.44L544.915,88.549L549.106,156.254L553.298,163.232L557.489,111.336L561.681,182.835L565.872,178.408L570.064,180.915L574.255,131.616L578.447,178.386L582.638,187.961L586.83,192.207L591.021,153.499L595.188,183.941L599.379,192.41L603.571,185.477L607.762,189.113L611.953,190.061L616.145,188.119L620.336,161.697L624.528,190.897L628.719,190.445L632.911,191.936L637.102,174.027L641.294,191.484L645.485,187.103L649.677,189.7L653.868,195.956L658.06,103.003L662.251,156.615L666.442,195.21L670.634,200.246L674.825,202.663L679.017,162.442L683.208,194.172L687.4,193.991L691.591,190.716L695.783,150.315L699.974,193.471L704.166,203.431L708.357,208.964L712.549,155.464L716.74,172.062L720.931,194.307L725.148,200.359L729.339,199.953L733.531,146.498L737.722,85.433L741.914,123.937L746.105,141.575L750.297,13.347L754.488,106.345L758.68,167.636L762.871,173.779" stroke="black" stroke-width="2" opacity="0.3"/></g><g class="mark-group role-scope layer_1_pathgroup" role="graphics-object" aria-roledescription="group mark container"><g transform="translate(0,0)"><path class="background" aria-hidden="true" d="M0,0h817.3350830078125v271h-817.3350830078125Z"/><g><g class="mark-line role-mark layer_1_marks" role="graphics-object" aria-roledescription="line mark container"><path aria-label="date: Jan 09, 2023; prediction: 6348.52347707; model: DivineOptimizedWeightsEnsemble; cutoff_date: Jan 09, 2023" role="graphics-symbol" aria-roledescription="line mark" d="M549.106,127.629L553.298,136.358L557.489,141.061L561.681,137.753L565.872,141.964L570.064,144.247L574.255,144.781L578.447,147.03L582.638,142.323L586.83,150.375L591.021,145.786L595.188,139.106L599.379,146.154" stroke="#0068c9" stroke-width="2" stroke-dasharray="1,0" opacity="0.8"/></g></g><path class="foreground" aria-hidden="true" d="" display="none"/></g><g transform="translate(0,0)"><path class="background" aria-hidden="true" d="M0,0h817.3350830078125v271h-817.3350830078125Z"/><g><g class="mark-line role-mark layer_1_marks" role="graphics-object" aria-roledescription="line mark container"><path aria-label="date: Apr 10, 2023; prediction: 4541.8182023; model: DivineOptimizedWeightsEnsemble; cutoff_date: Apr 10, 2023" role="graphics-symbol" aria-roledescription="line mark" d="M603.571,168.431L607.762,170.912L611.953,173.145L616.145,174.842L620.336,174.28L624.528,169.203L628.719,174.882L632.911,172.072L637.102,170.364L641.294,162.469L645.485,157.976L649.677,162.028L653.868,162.168" stroke="#0068c9" stroke-width="2" stroke-dasharray="4,2" opacity="0.8"/></g></g><path class="foreground" aria-hidden="true" d="" display="none"/></g><g transform="translate(0,0)"><path class="background" aria-hidden="true" d="M0,0h817.3350830078125v271h-817.3350830078125Z"/><g><g class="mark-line role-mark layer_1_marks" role="graphics-object" aria-roledescription="line mark container"><path aria-label="date: Jul 10, 2023; prediction: 4559.41474537; model: DivineOptimizedWeightsEnsemble; cutoff_date: Jul 10, 2023" role="graphics-symbol" aria-roledescription="line mark" d="M658.06,168.033L662.251,172.923L666.442,181.685L670.634,176.943L674.825,177.886L679.017,174.465L683.208,176.764L687.4,179.268L691.591,171.823L695.783,164.749L699.974,172.766L704.166,169.919L708.357,172.014" stroke="#0068c9" stroke-width="2" stroke-dasharray="2,1" opacity="0.8"/></g></g><path class="foreground" aria-hidden="true" d="" display="none"/></g><g transform="translate(0,0)"><path class="background" aria-hidden="true" d="M0,0h817.3350830078125v271h-817.3350830078125Z"/><g><g class="mark-line role-mark layer_1_marks" role="graphics-object" aria-roledescription="line mark container"><path aria-label="date: Oct 09, 2023; prediction: 4297.25375864; model: DivineOptimizedWeightsEnsemble; cutoff_date: Oct 09, 2023" role="graphics-symbol" aria-roledescription="line mark" d="M712.549,173.954L716.74,187.71L720.931,184.695L725.148,187.759L729.339,179.449L733.531,174.474L737.722,144.73L741.914,123.794L746.105,126.26L750.297,119.4L754.488,143.276L758.68,137.703L762.871,154.365" stroke="#0068c9" stroke-width="2" stroke-dasharray="1,1" opacity="0.8"/></g></g><path class="foreground" aria-hidden="true" d="" display="none"/></g></g><g class="mark-group role-scope layer_2_pathgroup" role="graphics-object" aria-roledescription="group mark container"><g transform="translate(0,0)"><path class="background" aria-hidden="true" d="M0,0h817.3350830078125v271h-817.3350830078125Z"/><g><g class="mark-line role-mark layer_2_marks" role="graphics-object" aria-roledescription="line mark container"><path aria-label="date: Jan 08, 2024; prediction: 4326.68423066; model: DivineOptimizedWeightsEnsemble" role="graphics-symbol" aria-roledescription="line mark" d="M767.062,173.289L771.254,174.596L775.445,173.838L779.637,179.394L783.828,180.807L788.02,179.427L792.211,173.716L796.403,180.709L800.594,181.034L804.786,182.618L808.977,178.902L813.169,176.93L817.335,183.494" stroke="#0068c9" stroke-width="2" stroke-dasharray="6,3" opacity="0.8"/></g></g><path class="foreground" aria-hidden="true" d="" display="none"/></g></g><g class="mark-group role-legend" role="graphics-symbol" aria-roledescription="legend" aria-label="Symbol legend titled 'model' for stroke color with 1 value: DivineOptimizedWeightsEnsemble"><g transform="translate(838,0)"><path class="background" aria-hidden="true" d="M0,0h190v47h-190Z" pointer-events="none"/><g><g class="mark-group role-legend-entry"><g transform="translate(7,26)"><path class="background" aria-hidden="true" d="M0,0h0v0h0Z" pointer-events="none"/><g><g class="mark-group role-scope" role="graphics-object" aria-roledescription="group mark container"><g transform="translate(0,0)"><path class="background" aria-hidden="true" d="M0,0h175.009765625v14h-175.009765625Z" pointer-events="none" opacity="1"/><g><g class="mark-symbol role-legend-symbol" pointer-events="none"><path transform="translate(7,7)" d="M-5,0L5,0" stroke="#0068c9" stroke-width="4" opacity="0.8"/></g><g class="mark-text role-legend-label" pointer-events="none"><text text-anchor="start" transform="translate(18,11)" font-family="&quot;Source Sans Pro&quot;, sans-serif" font-size="14px" font-weight="400" fill="#808495" opacity="1">DivineOptimizedWeights…</text></g></g><path class="foreground" aria-hidden="true" d="" pointer-events="none" display="none"/></g></g></g><path class="foreground" aria-hidden="true" d="" pointer-events="none" display="none"/></g></g><g class="mark-text role-legend-title" pointer-events="none"><text text-anchor="start" transform="translate(7,18)" font-family="&quot;Source Sans Pro&quot;, sans-serif" font-size="14px" font-style="normal" font-weight="400" fill="#808495" opacity="1">model</text></g></g><path class="foreground" aria-hidden="true" d="" pointer-events="none" display="none"/></g></g><g class="mark-group role-legend" role="graphics-symbol" aria-roledescription="legend" aria-label="Symbol legend titled 'cutoff_date' for strokeDash with 4 values: January 09, 2023, April 10, 2023, July 10, 2023, October 09, 2023"><g transform="translate(838,55)"><path class="background" aria-hidden="true" d="M0,0h105v101h-105Z" pointer-events="none"/><g><g class="mark-group role-legend-entry"><g transform="translate(7,26)"><path class="background" aria-hidden="true" d="M0,0h0v0h0Z" pointer-events="none"/><g><g class="mark-group role-scope" role="graphics-object" aria-roledescription="group mark container"><g transform="translate(0,0)"><path class="background" aria-hidden="true" d="M0,0h90.26789855957031v14h-90.26789855957031Z" pointer-events="none" opacity="1"/><g><g class="mark-symbol role-legend-symbol" pointer-events="none"><path transform="translate(7,7)" d="M-5,0L5,0" stroke="#888" stroke-width="4" stroke-dasharray="1,0" opacity="0.8"/></g><g class="mark-text role-legend-label" pointer-events="none"><text text-anchor="start" transform="translate(18,11)" font-family="&quot;Source Sans Pro&quot;, sans-serif" font-size="14px" font-weight="400" fill="#808495" opacity="1">Jan 09, 2023</text></g></g><path class="foreground" aria-hidden="true" d="" pointer-events="none" display="none"/></g><g transform="translate(0,18)"><path class="background" aria-hidden="true" d="M0,0h90.26789855957031v14h-90.26789855957031Z" pointer-events="none" opacity="1"/><g><g class="mark-symbol role-legend-symbol" pointer-events="none"><path transform="translate(7,7)" d="M-5,0L5,0" stroke="#888" stroke-width="4" stroke-dasharray="4,2" opacity="0.8"/></g><g class="mark-text role-legend-label" pointer-events="none"><text text-anchor="start" transform="translate(18,11)" font-family="&quot;Source Sans Pro&quot;, sans-serif" font-size="14px" font-weight="400" fill="#808495" opacity="1">Apr 10, 2023</text></g></g><path class="foreground" aria-hidden="true" d="" pointer-events="none" display="none"/></g><g transform="translate(0,36)"><path class="background" aria-hidden="true" d="M0,0h90.26789855957031v14h-90.26789855957031Z" pointer-events="none" opacity="1"/><g><g class="mark-symbol role-legend-symbol" pointer-events="none"><path transform="translate(7,7)" d="M-5,0L5,0" stroke="#888" stroke-width="4" stroke-dasharray="2,1" opacity="0.8"/></g><g class="mark-text role-legend-label" pointer-events="none"><text text-anchor="start" transform="translate(18,11)" font-family="&quot;Source Sans Pro&quot;, sans-serif" font-size="14px" font-weight="400" fill="#808495" opacity="1">Jul 10, 2023</text></g></g><path class="foreground" aria-hidden="true" d="" pointer-events="none" display="none"/></g><g transform="translate(0,54)"><path class="background" aria-hidden="true" d="M0,0h90.26789855957031v14h-90.26789855957031Z" pointer-events="none" opacity="1"/><g><g class="mark-symbol role-legend-symbol" pointer-events="none"><path transform="translate(7,7)" d="M-5,0L5,0" stroke="#888" stroke-width="4" stroke-dasharray="1,1" opacity="0.8"/></g><g class="mark-text role-legend-label" pointer-events="none"><text text-anchor="start" transform="translate(18,11)" font-family="&quot;Source Sans Pro&quot;, sans-serif" font-size="14px" font-weight="400" fill="#808495" opacity="1">Oct 09, 2023</text></g></g><path class="foreground" aria-hidden="true" d="" pointer-events="none" display="none"/></g></g></g><path class="foreground" aria-hidden="true" d="" pointer-events="none" display="none"/></g></g><g class="mark-text role-legend-title" pointer-events="none"><text text-anchor="start" transform="translate(7,18)" font-family="&quot;Source Sans Pro&quot;, sans-serif" font-size="14px" font-style="normal" font-weight="400" fill="#808495" opacity="1">cutoff_date</text></g></g><path class="foreground" aria-hidden="true" d="" pointer-events="none" display="none"/></g></g></g><path class="foreground" aria-hidden="true" d="" display="none"/></g></g></g></svg>
